<svg xmlns="http://www.w3.org/2000/svg" width="368.634" height="52.875" viewBox="0 0 368.634 52.875">
  <g id="Layer_1" data-name="Layer 1" transform="translate(1.251 1.25)">
    <path id="Path_131" data-name="Path 131" d="M69.92,38.211H63.2a1.375,1.375,0,0,1-1.375-1.375V10.225A1.375,1.375,0,0,1,63.2,8.85H69.92a14.66,14.66,0,0,1,0,29.32Zm-5.391-2.654H69.92a12.033,12.033,0,1,0,0-24.053H64.529Z" transform="translate(21.705 1.946)" fill="#37b8ea"/>
    <path id="Path_132" data-name="Path 132" d="M90.89,36.316C84.826,36.316,80.3,31.5,80.3,25.108a11.827,11.827,0,0,1,2.75-7.894A9.929,9.929,0,0,1,90.615,13.9c5.927,0,10.2,4.689,10.2,11.208a1.375,1.375,0,0,1-1.375,1.375h-16.5a7.99,7.99,0,0,0,7.949,7.179,7.522,7.522,0,0,0,6.642-3.741A1.375,1.375,0,0,1,99.815,31.3a10.314,10.314,0,0,1-8.925,5.02ZM83.052,23.774H98.179c-.5-4.318-3.4-7.261-7.467-7.261A7.77,7.77,0,0,0,83.052,23.774Z" transform="translate(28.638 3.84)" fill="#37b8ea"/>
    <path id="Path_133" data-name="Path 133" d="M104.129,36.312A7.1,7.1,0,0,1,97.4,32.489a1.326,1.326,0,1,1,2.407-1.114,4.469,4.469,0,0,0,4.318,2.283c3.039,0,4.648-1.953,4.648-3.823,0-2.448-1.485-3.067-4.937-3.947-2.9-.743-6.56-1.664-6.56-5.941a5.927,5.927,0,0,1,1.788-4.126,7.041,7.041,0,0,1,5.061-1.9,6.629,6.629,0,0,1,6.271,3.521,1.279,1.279,0,0,1-.619,1.747,1.375,1.375,0,0,1-1.788-.619,4.126,4.126,0,0,0-3.864-2.035,3.754,3.754,0,0,0-4.194,3.438c0,2.035,1.375,2.585,4.566,3.369,2.915.743,6.876,1.747,6.876,6.519a6.381,6.381,0,0,1-1.912,4.442,7.55,7.55,0,0,1-5.336,2.008Z" transform="translate(35.01 3.844)" fill="#37b8ea"/>
    <path id="Path_134" data-name="Path 134" d="M130.636,25.109c0,6.395-4.566,11.208-10.589,11.208a10.218,10.218,0,0,1-7.976-3.658V46.411a1.375,1.375,0,0,1-2.75,0V15.18A1.375,1.375,0,0,1,110.7,13.9a1.293,1.293,0,0,1,1.375,1.279V17.5a10.355,10.355,0,0,1,7.976-3.6C126.07,13.9,130.636,18.714,130.636,25.109Zm-2.613,0c0-4.9-3.452-8.6-7.976-8.6s-7.976,3.7-7.976,8.6a7.99,7.99,0,1,0,15.952,0Z" transform="translate(39.528 3.84)" fill="#37b8ea"/>
    <path id="Path_135" data-name="Path 135" d="M147.561,15.179v19.8a1.375,1.375,0,1,1-2.654,0V32.658a10.2,10.2,0,0,1-8.017,3.658c-6.023,0-10.589-4.813-10.589-11.208S130.866,13.9,136.889,13.9a10.328,10.328,0,0,1,7.976,3.6V15.179a1.375,1.375,0,0,1,2.654,0Zm-2.654,9.929c0-4.9-3.4-8.6-7.976-8.6s-7.921,3.7-7.921,8.6,3.4,8.554,7.921,8.554S144.907,29.963,144.907,25.108Z" transform="translate(45.899 3.84)" fill="#37b8ea"/>
    <path id="Path_136" data-name="Path 136" d="M155.275,34.106a1.375,1.375,0,0,1,.165,1.87,5.377,5.377,0,0,1-9.461-3.479V18.044h-1.21a1.375,1.375,0,0,1,0-2.613h1.21V11.2a1.375,1.375,0,0,1,2.75,0v4.236h4.689a1.375,1.375,0,1,1,0,2.613h-4.689V32.5a2.75,2.75,0,0,0,2.75,2.75,2.53,2.53,0,0,0,2.022-.963A1.375,1.375,0,0,1,155.275,34.106Z" transform="translate(52.473 2.31)" fill="#37b8ea"/>
    <path id="Path_137" data-name="Path 137" d="M164.889,36.316c-6.023,0-10.589-4.813-10.589-11.208S158.866,13.9,164.889,13.9a10.177,10.177,0,0,1,8.554,4.4,1.322,1.322,0,1,1-2.159,1.526,7.619,7.619,0,0,0-6.395-3.314c-4.524,0-7.976,3.7-7.976,8.6a8.128,8.128,0,0,0,7.976,8.554,7.591,7.591,0,0,0,6.395-3.287,1.375,1.375,0,1,1,2.159,1.54,10.245,10.245,0,0,1-8.554,4.4Z" transform="translate(56.405 3.84)" fill="#37b8ea"/>
    <path id="Path_138" data-name="Path 138" d="M188.412,25.339V36.877a1.375,1.375,0,1,1-2.75,0V25.339a6.436,6.436,0,1,0-12.831,0V36.877a1.375,1.375,0,1,1-2.75,0V10.225a1.375,1.375,0,1,1,2.75,0v8.251a8.856,8.856,0,0,1,6.436-2.654,9.1,9.1,0,0,1,9.145,9.516Z" transform="translate(62.326 1.946)" fill="#37b8ea"/>
    <path id="Path_139" data-name="Path 139" d="M209.485,38.2a14.66,14.66,0,1,1,11-24.328,1.375,1.375,0,0,1-.124,1.87,1.279,1.279,0,0,1-1.87-.138,12.033,12.033,0,1,0,0,15.829,1.325,1.325,0,1,1,1.994,1.747A14.687,14.687,0,0,1,209.485,38.2Z" transform="translate(71.603 1.957)" fill="#37b8ea"/>
    <path id="Path_140" data-name="Path 140" d="M218.387,10.324V36.975a1.375,1.375,0,1,1-2.654,0V10.324a1.375,1.375,0,1,1,2.654,0Z" transform="translate(79.437 1.847)" fill="#37b8ea"/>
    <path id="Path_141" data-name="Path 141" d="M230.828,36.316a11.208,11.208,0,1,1,11.208-11.208A11.208,11.208,0,0,1,230.828,36.316Zm0-19.8a8.581,8.581,0,1,0,8.568,8.6,8.581,8.581,0,0,0-8.568-8.6Z" transform="translate(80.914 3.84)" fill="#37b8ea"/>
    <path id="Path_142" data-name="Path 142" d="M255.893,15.114v19.8a1.375,1.375,0,1,1-2.668,0V33.432a9.049,9.049,0,0,1-6.6,2.819,8.513,8.513,0,0,1-6.477-2.86,10.163,10.163,0,0,1-2.407-6.725V15.114a1.375,1.375,0,0,1,2.654,0V26.666c0,4.016,2.613,6.876,6.23,6.876a6.684,6.684,0,0,0,6.6-6.876V15.114a1.375,1.375,0,0,1,2.668,0Z" transform="translate(87.712 3.905)" fill="#37b8ea"/>
    <path id="Path_143" data-name="Path 143" d="M273.97,10.342V36.994a1.375,1.375,0,1,1-2.613,0V34.67a10.218,10.218,0,0,1-7.976,3.658c-6.065,0-10.63-4.813-10.63-11.208s4.566-11.208,10.63-11.208a10.355,10.355,0,0,1,7.976,3.6V10.342a1.375,1.375,0,1,1,2.613,0ZM271.357,27.12c0-4.9-3.452-8.6-7.976-8.6s-7.976,3.7-7.976,8.6a7.99,7.99,0,1,0,15.952,0Z" transform="translate(93.345 1.828)" fill="#37b8ea"/>
    <path id="Path_144" data-name="Path 144" d="M18.764,6.17l-.11.124a19.514,19.514,0,0,0-1.306,1.719A20.064,20.064,0,0,0,15.092,12.4l-.523,1.375-1.5.1a13.01,13.01,0,0,0,.866,25.978H37.673" transform="translate(-1.084 0.94)" fill="none" stroke="#3695d1" stroke-linecap="round" stroke-miterlimit="10" stroke-width="2.5"/>
    <line id="Line_26" data-name="Line 26" x2="5.817" y2="5.817" transform="translate(32.243 35.027)" fill="none" stroke="#3695d1" stroke-linecap="round" stroke-miterlimit="10" stroke-width="2.5"/>
    <line id="Line_27" data-name="Line 27" y1="5.817" x2="5.817" transform="translate(32.243 40.844)" fill="none" stroke="#3695d1" stroke-linecap="round" stroke-miterlimit="10" stroke-width="2.5"/>
    <path id="Path_145" data-name="Path 145" d="M43.812,41.844h6a13.037,13.037,0,0,0,.88-26.033l-1.485-.1L48.68,14.34a20.284,20.284,0,0,0-2.324-4.4A20.5,20.5,0,0,0,41.9,5.208,20.161,20.161,0,0,0,36.138,2.1,20.612,20.612,0,0,0,14.053,7.959h0L13.97,8.1l-.11.124" transform="translate(3.71 -1)" fill="none" stroke="#37b8ea" stroke-linecap="round" stroke-miterlimit="10" stroke-width="2.5"/>
  </g>
</svg>
