<svg xmlns="http://www.w3.org/2000/svg" width="1069.967" height="1079.604" viewBox="0 0 1069.967 1079.604">
  <path id="Path_1" data-name="Path 1" d="M852.051,0h219.494s10.188,651.635.575,673.035c-27.442,61.094-63.058,35.476-72.083,76.773-12.131,55.507-92.968,49.142-137.331,84.809C761.652,915.864,830.74,1019.754,692.221,1034.4c-142.009-.7-163.82,45.2-163.82,45.2L6.283,1077.026s21.923-81.943,154.809-96.246,128.89-18.3,170.18-167.474c0-21.036,15.983-59.936,78.583-70.592s65.512-68.029,69.26-101.226c9.323-82.579,94.442-104.84,134.524-141.183C758.793,368.687,724.187,332.885,724.187,312.5,724.187,41.9,852.051,0,852.051,0Z" transform="translate(-6.282 0)" fill="#25bbf3"/>
</svg>
