<svg xmlns="http://www.w3.org/2000/svg" xmlns:xlink="http://www.w3.org/1999/xlink" width="736.383" height="601.664" viewBox="0 0 736.383 601.664">
  <defs>
    <linearGradient id="linear-gradient" x1="0.5" y1="1" x2="0.5" gradientUnits="objectBoundingBox">
      <stop offset="0" stop-color="gray" stop-opacity="0.251"/>
      <stop offset="0.54" stop-color="gray" stop-opacity="0.122"/>
      <stop offset="1" stop-color="gray" stop-opacity="0.102"/>
    </linearGradient>
  </defs>
  <g id="undraw_youtube_tutorial_2gn3_1_" data-name="undraw_youtube_tutorial_2gn3 (1)" transform="translate(-187.3 -154.02)">
    <path id="Path_85" data-name="Path 85" d="M642.342,745.811l-173.162-2.22.506-4.44,8.374-73.261H630.132l11.189,73.261.852,5.55Z" transform="translate(-31.568 -57.324)" fill="#d0d2d5"/>
    <path id="Path_86" data-name="Path 86" d="M642.173,753.94H555.761l-86.581-1.11.506-4.44H641.321Z" transform="translate(-31.568 -66.563)" opacity="0.1"/>
    <rect id="Rectangle_154" data-name="Rectangle 154" width="229.773" height="5.55" transform="translate(408.752 682.937)" fill="#d0d2d5"/>
    <path id="Path_87" data-name="Path 87" d="M892.748,202.759a14.448,14.448,0,0,0-14.377-14.519H236.686A14.448,14.448,0,0,0,222.3,202.759V591.708H892.748Z" transform="translate(-35 -34.22)" fill="#444053"/>
    <path id="Path_88" data-name="Path 88" d="M222.3,638.24v45.555a14.386,14.386,0,0,0,14.386,14.386H878.371a14.386,14.386,0,0,0,14.377-14.386V638.24Z" transform="translate(-35 -84.615)" fill="#d0d2d5"/>
    <rect id="Rectangle_155" data-name="Rectangle 155" width="618.277" height="349.654" transform="translate(215.05 178.44)" fill="#3596d4" opacity="0.1"/>
    <path id="Path_89" data-name="Path 89" d="M601.665,682.5a15,15,0,0,0,11.793-5.719h0a15.285,15.285,0,0,0,1.163-1.714l-8.223-1.35,8.88.071a14.963,14.963,0,0,0,.284-11.882l-11.926,6.216,11-8.081a14.981,14.981,0,1,0-24.749,16.766h0A14.981,14.981,0,0,0,601.665,682.5Z" transform="translate(-75.811 -86.224)" fill="#3596d4"/>
    <path id="Path_90" data-name="Path 90" d="M585.43,671.52l69.078,69.371L643.914,671.52Z" transform="translate(-44.586 -57.955)" opacity="0.1"/>
    <rect id="Rectangle_156" data-name="Rectangle 156" width="405.821" height="243.315" rx="2.6" transform="translate(233.21 241.525)" fill="#fff"/>
    <rect id="Rectangle_157" data-name="Rectangle 157" width="618.055" height="20.424" transform="translate(215.45 178.476)" fill="#fff"/>
    <rect id="Rectangle_158" data-name="Rectangle 158" width="17.76" height="12.432" rx="0.78" transform="translate(218.114 182.028)" fill="#3596d4"/>
    <rect id="Rectangle_159" data-name="Rectangle 159" width="186.482" height="12.432" rx="0.58" transform="translate(429.46 182.028)" fill="#3596d4" opacity="0.3"/>
    <path id="Path_91" data-name="Path 91" d="M697.876,227.437h-.453l-.169-.142a3.774,3.774,0,0,0,.888-2.415,3.676,3.676,0,1,0-3.668,3.7,3.792,3.792,0,0,0,2.415-.888l.169.142v.462l2.842,2.842.888-.888Zm-3.41,0a2.566,2.566,0,1,1,2.557-2.557,2.54,2.54,0,0,1-2.557,2.557Z" transform="translate(-87.466 -37.915)" fill="#444053"/>
    <circle id="Ellipse_31" data-name="Ellipse 31" cx="6.216" cy="6.216" r="6.216" transform="translate(818.409 182.028)" fill="#3596d4"/>
    <rect id="Rectangle_160" data-name="Rectangle 160" width="57.721" height="39.072" rx="2.43" transform="translate(668.335 221.1)" fill="#fff"/>
    <rect id="Rectangle_161" data-name="Rectangle 161" width="74.593" height="6.216" rx="0.61" transform="translate(741.152 221.1)" fill="#fff"/>
    <rect id="Rectangle_162" data-name="Rectangle 162" width="74.593" height="6.216" rx="0.61" transform="translate(741.152 234.42)" fill="#fff"/>
    <rect id="Rectangle_163" data-name="Rectangle 163" width="74.593" height="6.216" rx="0.61" transform="translate(741.152 247.741)" fill="#fff"/>
    <rect id="Rectangle_164" data-name="Rectangle 164" width="57.721" height="39.072" rx="2.43" transform="translate(668.335 282.373)" fill="#fff"/>
    <rect id="Rectangle_165" data-name="Rectangle 165" width="74.593" height="6.216" rx="0.61" transform="translate(741.152 282.373)" fill="#fff"/>
    <rect id="Rectangle_166" data-name="Rectangle 166" width="74.593" height="6.216" rx="0.61" transform="translate(741.152 295.693)" fill="#fff"/>
    <rect id="Rectangle_167" data-name="Rectangle 167" width="74.593" height="6.216" rx="0.66" transform="translate(741.152 309.013)" fill="#fff"/>
    <rect id="Rectangle_168" data-name="Rectangle 168" width="57.721" height="39.072" rx="2.43" transform="translate(668.335 343.646)" fill="#fff"/>
    <rect id="Rectangle_169" data-name="Rectangle 169" width="74.593" height="6.216" rx="0.66" transform="translate(741.152 343.646)" fill="#fff"/>
    <rect id="Rectangle_170" data-name="Rectangle 170" width="74.593" height="6.216" rx="0.66" transform="translate(741.152 356.966)" fill="#fff"/>
    <rect id="Rectangle_171" data-name="Rectangle 171" width="74.593" height="6.216" rx="0.66" transform="translate(741.152 370.286)" fill="#fff"/>
    <rect id="Rectangle_172" data-name="Rectangle 172" width="57.721" height="39.072" rx="2.43" transform="translate(668.335 404.919)" fill="#fff"/>
    <rect id="Rectangle_173" data-name="Rectangle 173" width="74.593" height="6.216" rx="0.66" transform="translate(741.152 404.919)" fill="#fff"/>
    <rect id="Rectangle_174" data-name="Rectangle 174" width="74.593" height="6.216" rx="0.66" transform="translate(741.152 418.239)" fill="#fff"/>
    <rect id="Rectangle_175" data-name="Rectangle 175" width="74.593" height="6.216" rx="0.66" transform="translate(741.152 431.559)" fill="#fff"/>
    <rect id="Rectangle_176" data-name="Rectangle 176" width="57.721" height="39.072" rx="2.43" transform="translate(668.335 466.191)" fill="#fff"/>
    <rect id="Rectangle_177" data-name="Rectangle 177" width="74.593" height="6.216" rx="0.66" transform="translate(741.152 466.191)" fill="#fff"/>
    <rect id="Rectangle_178" data-name="Rectangle 178" width="74.593" height="6.216" rx="0.66" transform="translate(741.152 479.511)" fill="#fff"/>
    <rect id="Rectangle_179" data-name="Rectangle 179" width="74.593" height="6.216" rx="0.66" transform="translate(741.152 492.832)" fill="#fff"/>
    <rect id="Rectangle_180" data-name="Rectangle 180" width="91.314" height="4.733" transform="translate(291.748 306.003)" fill="#3596d4" opacity="0.1"/>
    <rect id="Rectangle_181" data-name="Rectangle 181" width="8.791" height="25.024" transform="translate(299.864 280.979)" fill="#3596d4" opacity="0.1"/>
    <rect id="Rectangle_182" data-name="Rectangle 182" width="8.791" height="25.024" transform="translate(312.714 280.979)" fill="#3596d4" opacity="0.1"/>
    <rect id="Rectangle_183" data-name="Rectangle 183" width="8.791" height="25.024" transform="translate(325.563 280.979)" fill="#3596d4" opacity="0.1"/>
    <rect id="Rectangle_184" data-name="Rectangle 184" width="8.791" height="25.024" transform="translate(338.413 280.979)" fill="#3596d4" opacity="0.1"/>
    <rect id="Rectangle_185" data-name="Rectangle 185" width="8.791" height="25.024" transform="translate(351.262 280.979)" fill="#3596d4" opacity="0.1"/>
    <rect id="Rectangle_186" data-name="Rectangle 186" width="8.791" height="25.024" transform="translate(364.121 280.979)" fill="#3596d4" opacity="0.1"/>
    <rect id="Rectangle_187" data-name="Rectangle 187" width="8.791" height="2.708" transform="translate(299.864 285.712)" fill="#3596d4" opacity="0.1"/>
    <rect id="Rectangle_188" data-name="Rectangle 188" width="8.791" height="2.708" transform="translate(312.714 285.712)" fill="#3596d4" opacity="0.1"/>
    <rect id="Rectangle_189" data-name="Rectangle 189" width="8.791" height="2.708" transform="translate(325.563 285.712)" fill="#3596d4" opacity="0.1"/>
    <rect id="Rectangle_190" data-name="Rectangle 190" width="8.791" height="2.708" transform="translate(338.413 285.712)" fill="#3596d4" opacity="0.1"/>
    <rect id="Rectangle_191" data-name="Rectangle 191" width="8.791" height="2.708" transform="translate(351.262 285.712)" fill="#3596d4" opacity="0.1"/>
    <rect id="Rectangle_192" data-name="Rectangle 192" width="8.791" height="2.708" transform="translate(364.121 285.712)" fill="#3596d4" opacity="0.1"/>
    <rect id="Rectangle_193" data-name="Rectangle 193" width="8.791" height="2.708" transform="translate(299.864 297.887)" fill="#3596d4" opacity="0.1"/>
    <rect id="Rectangle_194" data-name="Rectangle 194" width="8.791" height="2.708" transform="translate(312.714 297.887)" fill="#3596d4" opacity="0.1"/>
    <rect id="Rectangle_195" data-name="Rectangle 195" width="8.791" height="2.708" transform="translate(325.563 297.887)" fill="#3596d4" opacity="0.1"/>
    <rect id="Rectangle_196" data-name="Rectangle 196" width="8.791" height="2.708" transform="translate(338.413 297.887)" fill="#3596d4" opacity="0.1"/>
    <rect id="Rectangle_197" data-name="Rectangle 197" width="8.791" height="2.708" transform="translate(351.262 297.887)" fill="#3596d4" opacity="0.1"/>
    <rect id="Rectangle_198" data-name="Rectangle 198" width="8.791" height="2.708" transform="translate(364.121 297.887)" fill="#3596d4" opacity="0.1"/>
    <rect id="Rectangle_199" data-name="Rectangle 199" width="91.314" height="4.733" transform="translate(491.95 318.178)" fill="#3596d4" opacity="0.1"/>
    <rect id="Rectangle_200" data-name="Rectangle 200" width="8.791" height="25.024" transform="translate(500.066 293.154)" fill="#3596d4" opacity="0.1"/>
    <rect id="Rectangle_201" data-name="Rectangle 201" width="8.791" height="25.024" transform="translate(512.916 293.154)" fill="#3596d4" opacity="0.1"/>
    <rect id="Rectangle_202" data-name="Rectangle 202" width="8.791" height="25.024" transform="translate(525.765 293.154)" fill="#3596d4" opacity="0.1"/>
    <rect id="Rectangle_203" data-name="Rectangle 203" width="8.791" height="25.024" transform="translate(538.624 293.154)" fill="#3596d4" opacity="0.1"/>
    <rect id="Rectangle_204" data-name="Rectangle 204" width="8.791" height="25.024" transform="translate(551.473 293.154)" fill="#3596d4" opacity="0.1"/>
    <rect id="Rectangle_205" data-name="Rectangle 205" width="8.791" height="25.024" transform="translate(564.323 293.154)" fill="#3596d4" opacity="0.1"/>
    <rect id="Rectangle_206" data-name="Rectangle 206" width="8.791" height="2.708" transform="translate(500.066 297.887)" fill="#3596d4" opacity="0.1"/>
    <rect id="Rectangle_207" data-name="Rectangle 207" width="8.791" height="2.708" transform="translate(512.916 297.887)" fill="#3596d4" opacity="0.1"/>
    <rect id="Rectangle_208" data-name="Rectangle 208" width="8.791" height="2.708" transform="translate(525.765 297.887)" fill="#3596d4" opacity="0.1"/>
    <rect id="Rectangle_209" data-name="Rectangle 209" width="8.791" height="2.708" transform="translate(538.624 297.887)" fill="#3596d4" opacity="0.1"/>
    <rect id="Rectangle_210" data-name="Rectangle 210" width="8.791" height="2.708" transform="translate(551.473 297.887)" fill="#3596d4" opacity="0.1"/>
    <rect id="Rectangle_211" data-name="Rectangle 211" width="8.791" height="2.708" transform="translate(564.323 297.887)" fill="#3596d4" opacity="0.1"/>
    <rect id="Rectangle_212" data-name="Rectangle 212" width="8.791" height="2.708" transform="translate(500.066 310.061)" fill="#3596d4" opacity="0.1"/>
    <rect id="Rectangle_213" data-name="Rectangle 213" width="8.791" height="2.708" transform="translate(512.916 310.061)" fill="#3596d4" opacity="0.1"/>
    <rect id="Rectangle_214" data-name="Rectangle 214" width="8.791" height="2.708" transform="translate(525.765 310.061)" fill="#3596d4" opacity="0.1"/>
    <rect id="Rectangle_215" data-name="Rectangle 215" width="8.791" height="2.708" transform="translate(538.624 310.061)" fill="#3596d4" opacity="0.1"/>
    <rect id="Rectangle_216" data-name="Rectangle 216" width="8.791" height="2.708" transform="translate(551.473 310.061)" fill="#3596d4" opacity="0.1"/>
    <rect id="Rectangle_217" data-name="Rectangle 217" width="8.791" height="2.708" transform="translate(564.323 310.061)" fill="#3596d4" opacity="0.1"/>
    <rect id="Rectangle_218" data-name="Rectangle 218" width="91.314" height="4.733" transform="translate(491.95 352.668)" fill="#3596d4" opacity="0.1"/>
    <rect id="Rectangle_219" data-name="Rectangle 219" width="8.791" height="25.024" transform="translate(500.066 327.644)" fill="#3596d4" opacity="0.1"/>
    <rect id="Rectangle_220" data-name="Rectangle 220" width="8.791" height="25.024" transform="translate(512.916 327.644)" fill="#3596d4" opacity="0.1"/>
    <rect id="Rectangle_221" data-name="Rectangle 221" width="8.791" height="25.024" transform="translate(525.765 327.644)" fill="#3596d4" opacity="0.1"/>
    <rect id="Rectangle_222" data-name="Rectangle 222" width="8.791" height="25.024" transform="translate(538.624 327.644)" fill="#3596d4" opacity="0.1"/>
    <rect id="Rectangle_223" data-name="Rectangle 223" width="8.791" height="25.024" transform="translate(551.473 327.644)" fill="#3596d4" opacity="0.1"/>
    <rect id="Rectangle_224" data-name="Rectangle 224" width="8.791" height="25.024" transform="translate(564.323 327.644)" fill="#3596d4" opacity="0.1"/>
    <rect id="Rectangle_225" data-name="Rectangle 225" width="8.791" height="2.708" transform="translate(500.066 332.377)" fill="#3596d4" opacity="0.1"/>
    <rect id="Rectangle_226" data-name="Rectangle 226" width="8.791" height="2.708" transform="translate(512.916 332.377)" fill="#3596d4" opacity="0.1"/>
    <rect id="Rectangle_227" data-name="Rectangle 227" width="8.791" height="2.708" transform="translate(525.765 332.377)" fill="#3596d4" opacity="0.1"/>
    <rect id="Rectangle_228" data-name="Rectangle 228" width="8.791" height="2.708" transform="translate(538.624 332.377)" fill="#3596d4" opacity="0.1"/>
    <rect id="Rectangle_229" data-name="Rectangle 229" width="8.791" height="2.708" transform="translate(551.473 332.377)" fill="#3596d4" opacity="0.1"/>
    <rect id="Rectangle_230" data-name="Rectangle 230" width="8.791" height="2.708" transform="translate(564.323 332.377)" fill="#3596d4" opacity="0.1"/>
    <rect id="Rectangle_231" data-name="Rectangle 231" width="8.791" height="2.708" transform="translate(500.066 344.552)" fill="#3596d4" opacity="0.1"/>
    <rect id="Rectangle_232" data-name="Rectangle 232" width="8.791" height="2.708" transform="translate(512.916 344.552)" fill="#3596d4" opacity="0.1"/>
    <rect id="Rectangle_233" data-name="Rectangle 233" width="8.791" height="2.708" transform="translate(525.765 344.552)" fill="#3596d4" opacity="0.1"/>
    <rect id="Rectangle_234" data-name="Rectangle 234" width="8.791" height="2.708" transform="translate(538.624 344.552)" fill="#3596d4" opacity="0.1"/>
    <rect id="Rectangle_235" data-name="Rectangle 235" width="8.791" height="2.708" transform="translate(551.473 344.552)" fill="#3596d4" opacity="0.1"/>
    <rect id="Rectangle_236" data-name="Rectangle 236" width="8.791" height="2.708" transform="translate(564.323 344.552)" fill="#3596d4" opacity="0.1"/>
    <path id="Path_92" data-name="Path 92" d="M402.35,414.749a25.265,25.265,0,0,1-1.865-2.744l13.151-2.158-14.208.107a24.03,24.03,0,0,1-.462-18.986l19.048,9.875-17.591-12.929A23.976,23.976,0,1,1,440,414.731a23.3,23.3,0,0,1,2.735,4.369l-17.068,8.88,18.2-6.1A23.976,23.976,0,0,1,440,444.355a23.976,23.976,0,1,1-37.652,0,23.976,23.976,0,0,1,0-29.633Z" transform="translate(-54.587 -55.226)" fill="#3596d4" opacity="0.1"/>
    <path id="Path_93" data-name="Path 93" d="M445.135,436.3a23.881,23.881,0,0,1-5.135,14.8,23.976,23.976,0,1,1-37.65,0C399.127,447.031,445.135,433.6,445.135,436.3Z" transform="translate(-54.587 -61.96)" fill="#3596d4" opacity="0.1"/>
    <path id="Path_94" data-name="Path 94" d="M427.391,503.019a2.248,2.248,0,0,1,.115.2h-8.134c.044-.062.071-.133.115-.2a7.877,7.877,0,0,1-1.048-4,8.223,8.223,0,0,1,.488-2.824h0c.453.071,1.012.151,1.661.222a28.506,28.506,0,0,0,5.674,0q.817-.08,1.678-.213a.08.08,0,0,0,0,.044,7.993,7.993,0,0,1,.48,2.779A7.877,7.877,0,0,1,427.391,503.019Z" transform="translate(-56.966 -68.707)" fill="#3f3d56" opacity="0.2"/>
    <path id="Path_95" data-name="Path 95" d="M387.514,492.918H342.225c-.1-.258-.186-.533-.266-.8a23.843,23.843,0,0,1,.524-15.665,23.976,23.976,0,0,1-8.747-28.319,22.936,22.936,0,0,1-2.584-2.069l11.917-5.941-13.551,4.3a23.976,23.976,0,0,1-6.038-18l21.144,3.818L324,423.076a23.976,23.976,0,1,1,45.724,13.942,24.288,24.288,0,0,1,3.934,3.419l-13.693,13.507,15.585-11.207a23.976,23.976,0,0,1,2.948,22.644,23.976,23.976,0,0,1,9.013,27.537Z" transform="translate(-46.322 -58.411)" fill="#3596d4" opacity="0.1"/>
    <path id="Path_96" data-name="Path 96" d="M389.719,498.623H344.431c-.1-.258-.186-.533-.266-.8a23.843,23.843,0,0,1,.524-15.665c-4.262-2.948,35.725-29.367,36.515-26.791a23.87,23.87,0,0,1-.524,15.673,23.976,23.976,0,0,1,9.04,27.582Z" transform="translate(-48.527 -64.116)" fill="#3596d4" opacity="0.1"/>
    <path id="Path_97" data-name="Path 97" d="M616.972,462.989a23.888,23.888,0,0,1-12,10.088,24.332,24.332,0,0,1,.1,5.151l-19.19-1.154,18.746,4.067a23.974,23.974,0,0,1-2.859,7.246,23.594,23.594,0,0,1-6.394,7.015H569.25v.684H542.61c.053-.231.107-.453.169-.684a23.977,23.977,0,0,1,14.608-16.259A23.976,23.976,0,0,1,572.6,453.709a24.29,24.29,0,0,1-.2-3.312l12.388,4.893-12.255-7.2a23.976,23.976,0,0,1,9.4-16.5l11.287,18.275-8.463-20.122a23.976,23.976,0,0,1,32.208,33.247Z" transform="translate(-70.871 -60.93)" fill="#3596d4" opacity="0.1"/>
    <path id="Path_98" data-name="Path 98" d="M601.769,494.873a23.6,23.6,0,0,1-6.394,7.015H569.25v.684H542.61c.053-.231.107-.453.169-.684a23.976,23.976,0,0,1,14.608-16.259c-.222-1.776,4.937-1.51,11.819-.355C582.695,487.538,602.684,493.346,601.769,494.873Z" transform="translate(-70.871 -67.381)" fill="#3596d4" opacity="0.1"/>
    <path id="Path_99" data-name="Path 99" d="M480.947,424.02s3.286,17.76-4.049,23.559,6.216,40.555,28.576,36.5,31.471-33.212,31.471-33.212-22.4-4.635-14.093-28.194Z" transform="translate(-63.288 -60.474)" fill="#ee8e9e"/>
    <path id="Path_100" data-name="Path 100" d="M480.947,424.02s3.286,17.76-4.049,23.559,6.216,40.555,28.576,36.5,31.471-33.212,31.471-33.212-22.4-4.635-14.093-28.194Z" transform="translate(-63.288 -60.474)" opacity="0.1"/>
    <circle id="Ellipse_32" data-name="Ellipse 32" cx="37.074" cy="37.074" r="37.074" transform="translate(400.378 302.433)" fill="#ee8e9e"/>
    <path id="Path_101" data-name="Path 101" d="M557.171,473.147v25.2H434.75V474.293a15.523,15.523,0,0,1,9.476-14.3l3.507-1.491c8.88-3.783,19.669-8.48,23.195-10.434a5.8,5.8,0,0,0,1.083-.7c1.927-1.927,1.545.577,1.545.577s-.053.48-.089,1.305c-.213,5.674.6,27.972,26.738,26.116,25.495-1.776,26.64-19.021,26.383-24.092a13.732,13.732,0,0,0-.115-1.4,32.936,32.936,0,0,1,5.159,1.687c5.328,1.971,13.2,5.133,15.3,6.625.657.462,1.456.941,2.327,1.43a15.3,15.3,0,0,1,2.753,1.962,15.549,15.549,0,0,1,5.159,11.571Z" transform="translate(-58.792 -63.158)" fill="#3596d4"/>
    <path id="Path_102" data-name="Path 102" d="M536.192,451.56c-2.158,10-8.933,28.727-33.354,29.216-26.019.515-27.528-25.362-27.36-32.705a5.247,5.247,0,0,0,1.092-.7c1.936-1.927,1.545.577,1.545.577s-3.277,29.544,26.64,27.422S531,449.881,531,449.881A36.472,36.472,0,0,1,536.192,451.56Z" transform="translate(-63.352 -63.158)" opacity="0.1"/>
    <path id="Path_103" data-name="Path 103" d="M454.264,391.574a6.349,6.349,0,0,1,6.687,2.442c1.35,1.891,1.554,4.174,1.723,6.358,1.607.337,2.513-1.483,2.664-2.859.595-5.6.639-11.313,2.522-16.73s5.994-10.656,12.308-12.725a14.279,14.279,0,0,1,6.722-.639c1.341.222,2.6.693,3.934.888,4.618.764,9.635-1.421,13.96.1,2.717.959,4.44,3.17,5.71,5.381a11.617,11.617,0,0,0,2.22,3.223c1.838,1.652,4.715,2.078,7.353,2.593s5.515,1.412,6.642,3.445c1.012,1.838.266,3.961-.071,5.95a14.581,14.581,0,0,0,1.5,9.209c.488.888,1.483,1.962,2.664,1.669a2.335,2.335,0,0,0,1.261-1.021c3.028-4.245,2.948-9.768,6.749-13.6,1.27-1.279,2.913-2.273,4.147-3.552a8.064,8.064,0,0,0,2.149-7.317c-.684-2.93-3.028-5.328-4.92-7.9a31.078,31.078,0,0,1-5.266-10.931,1.981,1.981,0,0,1,0-1.43,3.809,3.809,0,0,1,1.35-1.1,5.1,5.1,0,0,0,1.723-6.509c-1.074-2.193-3.437-3.863-6.1-4.857a39.782,39.782,0,0,0-8.321-1.776c-1.865.266-4.049-.79-4.627-2.282-.258-.666-.258-1.385-.515-2.051a4.706,4.706,0,0,0-3.552-2.486,10.39,10.39,0,0,0-4.751.337c-1.776.5-3.792,1.243-5.328.373-.808-.453-1.252-1.279-2.122-1.652-1.776-.746-3.605.764-4.875,2.007a11.865,11.865,0,0,1-4.4,2.957,6.545,6.545,0,0,1-5.452-.364c-1.217-.773-1.829-2.016-2.8-3a10.532,10.532,0,0,0-6.616-2.664,23.292,23.292,0,0,0-7.468.817,45.1,45.1,0,0,0-13.116,5.506,14.092,14.092,0,0,0-5.035,4.68,10.656,10.656,0,0,0-1.128,4.822c-.2,5.248,1.545,10.772,6.083,14.448-2.771,1.154-3.7,3.987-4.351,6.5-1.039,4.014-2.078,8.09-1.687,12.175.2,2.113.773,4.227.462,6.332a13.641,13.641,0,0,0-.408,3.028,2.9,2.9,0,0,0,2.371,2.211Z" transform="translate(-60.697 -50.21)" fill="#454b69"/>
    <g id="Group_242" data-name="Group 242" transform="translate(391.116 294.184)" opacity="0.1">
      <path id="Path_104" data-name="Path 104" d="M553.945,378a8.668,8.668,0,0,1-1.6,2.362c-1.234,1.3-2.877,2.3-4.147,3.552-3.8,3.8-3.721,9.36-6.749,13.6a2.282,2.282,0,0,1-1.261,1.012c-1.154.3-2.149-.746-2.664-1.669a15.274,15.274,0,0,1-1.323-3.552l-.178.888a14.581,14.581,0,0,0,1.5,9.209c.488.888,1.483,1.962,2.664,1.669a2.335,2.335,0,0,0,1.261-1.021c3.028-4.245,2.948-9.768,6.749-13.6,1.27-1.279,2.913-2.273,4.147-3.552a8.063,8.063,0,0,0,2.149-7.317A9.537,9.537,0,0,0,553.945,378Z" transform="translate(-461.228 -349.655)"/>
      <path id="Path_105" data-name="Path 105" d="M546.723,348.277a3.721,3.721,0,0,0-1.35,1.1,1.963,1.963,0,0,0,0,1.421,30.02,30.02,0,0,0,1.341,4.049h0a5.1,5.1,0,0,0,1.723-6.509,6.211,6.211,0,0,0-.622-1.039A5.113,5.113,0,0,1,546.723,348.277Z" transform="translate(-462.282 -346.217)"/>
      <path id="Path_106" data-name="Path 106" d="M457.94,356.372a16.464,16.464,0,0,1-5.816-10.292,13.87,13.87,0,0,0-.266,2.415,18.488,18.488,0,0,0,2.922,10.985,6.216,6.216,0,0,1,3.161-3.108Z" transform="translate(-451.821 -346.08)"/>
      <path id="Path_107" data-name="Path 107" d="M526.665,386.2c.337-2,1.083-4.12.071-5.95-1.128-2.042-4-2.93-6.642-3.445s-5.515-.95-7.353-2.593a11.616,11.616,0,0,1-2.22-3.224c-1.252-2.211-2.993-4.44-5.71-5.381-4.325-1.518-9.342.657-13.96-.1-1.332-.222-2.593-.684-3.934-.888a14.209,14.209,0,0,0-6.722.639c-6.314,2.078-10.425,7.317-12.308,12.725s-1.927,11.118-2.522,16.73c-.151,1.368-1.057,3.2-2.664,2.859-.169-2.193-.373-4.44-1.723-6.367a6.349,6.349,0,0,0-6.687-2.433,3.25,3.25,0,0,1-1.874-1.2,10.29,10.29,0,0,1,0,2.451,13.641,13.641,0,0,0-.408,3.028,2.9,2.9,0,0,0,2.318,2.282,6.349,6.349,0,0,1,6.687,2.442c1.35,1.891,1.554,4.174,1.723,6.358,1.607.337,2.513-1.483,2.664-2.859.595-5.6.639-11.313,2.522-16.73s5.994-10.656,12.308-12.725a14.279,14.279,0,0,1,6.722-.639c1.341.222,2.6.693,3.934.888,4.618.764,9.635-1.421,13.96.1,2.717.959,4.44,3.17,5.71,5.381a11.614,11.614,0,0,0,2.22,3.223c1.838,1.652,4.715,2.078,7.353,2.593s5.328,1.35,6.509,3.232A.766.766,0,0,1,526.665,386.2Z" transform="translate(-451.841 -348.14)"/>
      <path id="Path_108" data-name="Path 108" d="M452.362,385.206a16.871,16.871,0,0,0-.293-4.946,22.043,22.043,0,0,0-.169,5.186,9.447,9.447,0,0,0,.16,1.323C452.157,386.245,452.291,385.73,452.362,385.206Z" transform="translate(-451.819 -349.908)"/>
    </g>
    <path id="Path_109" data-name="Path 109" d="M403.49,543.141V527.112a.453.453,0,0,1,.453-.453h1.82a.453.453,0,0,1,.453.453v6.669l7.388-6.847a1.208,1.208,0,0,1,1.98.888v14.519a1.208,1.208,0,0,1-1.98.888l-7.388-6.8v6.633a.453.453,0,0,1-.453.453h-1.82A.453.453,0,0,1,403.49,543.141Z" transform="translate(-55.291 -72.119)" fill="#444053"/>
    <path id="Path_110" data-name="Path 110" d="M603,527.116v16.029a.453.453,0,0,1-.462.453H600.76a.453.453,0,0,1-.453-.453v-6.669l-7.388,6.838a1.217,1.217,0,0,1-1.989-.888V527.853a1.217,1.217,0,0,1,1.989-.888l7.388,6.8v-6.625a.453.453,0,0,1,.453-.453h1.776a.453.453,0,0,1,.462.426Z" transform="translate(-76.283 -72.123)" fill="#444053"/>
    <path id="Path_111" data-name="Path 111" d="M499.93,543.879h-3.614a1.776,1.776,0,0,1-1.776-1.776V528.836a1.776,1.776,0,0,1,1.776-1.776h3.614a1.776,1.776,0,0,1,1.776,1.776V542.1A1.776,1.776,0,0,1,499.93,543.879Zm11.455-1.776V528.836a1.776,1.776,0,0,0-1.776-1.776h-3.65a1.776,1.776,0,0,0-1.776,1.776V542.1a1.776,1.776,0,0,0,1.776,1.776h3.614a1.776,1.776,0,0,0,1.812-1.776Z" transform="translate(-65.488 -72.164)" fill="#444053"/>
    <rect id="Rectangle_237" data-name="Rectangle 237" width="213.123" height="2.371" transform="translate(330.891 433.388)" fill="#444053" opacity="0.6"/>
    <circle id="Ellipse_33" data-name="Ellipse 33" cx="5.621" cy="5.621" r="5.621" transform="translate(391.081 428.948)" fill="#444053"/>
    <rect id="Rectangle_238" data-name="Rectangle 238" width="65.81" height="2.371" transform="translate(330.891 433.388)" fill="#444053"/>
    <path id="Path_130" data-name="Path 130" d="M52.81,0c29.166,0,52.81,4.548,52.81,10.159S81.976,20.318,52.81,20.318,0,15.769,0,10.159,23.644,0,52.81,0Z" transform="translate(818.063 680.681)" fill="#25bbf3"/>
    <ellipse id="Ellipse_35" data-name="Ellipse 35" cx="6.145" cy="8.045" rx="6.145" ry="8.045" transform="translate(863.849 678.479)" fill="#3f3d56"/>
    <ellipse id="Ellipse_36" data-name="Ellipse 36" cx="6.145" cy="8.045" rx="6.145" ry="8.045" transform="translate(863.849 668.64)" fill="#3f3d56"/>
    <ellipse id="Ellipse_37" data-name="Ellipse 37" cx="6.145" cy="8.045" rx="6.145" ry="8.045" transform="translate(863.849 658.81)" fill="#3f3d56"/>
    <ellipse id="Ellipse_38" data-name="Ellipse 38" cx="6.145" cy="8.045" rx="6.145" ry="8.045" transform="translate(863.849 648.97)" fill="#3f3d56"/>
    <ellipse id="Ellipse_39" data-name="Ellipse 39" cx="6.145" cy="8.045" rx="6.145" ry="8.045" transform="translate(863.849 639.131)" fill="#3f3d56"/>
    <ellipse id="Ellipse_40" data-name="Ellipse 40" cx="6.145" cy="8.045" rx="6.145" ry="8.045" transform="translate(863.849 629.292)" fill="#3f3d56"/>
    <ellipse id="Ellipse_41" data-name="Ellipse 41" cx="6.145" cy="8.045" rx="6.145" ry="8.045" transform="translate(863.849 619.453)" fill="#3f3d56"/>
    <path id="Path_112" data-name="Path 112" d="M1010.367,639.618a30.438,30.438,0,0,0,2.291-3.374L996.5,633.58l17.476.133a29.544,29.544,0,0,0,.559-23.337l-23.426,12.166,21.614-15.887a29.455,29.455,0,1,0-48.645,32.963,30.063,30.063,0,0,0-3.357,5.328l20.975,10.9-22.36-7.5a29.473,29.473,0,0,0,4.742,27.653,29.446,29.446,0,1,0,46.3,0,29.464,29.464,0,0,0,0-36.408Z" transform="translate(-117.364 -79.431)" fill="#3596d4"/>
    <path id="Path_113" data-name="Path 113" d="M957.78,666.075a29.3,29.3,0,0,0,6.3,18.2,29.446,29.446,0,1,0,46.3,0C1014.32,679.28,957.78,662.772,957.78,666.075Z" transform="translate(-117.366 -87.684)" opacity="0.1"/>
    <ellipse id="Ellipse_42" data-name="Ellipse 42" cx="87.913" cy="18.648" rx="87.913" ry="18.648" transform="translate(190.586 718.386)" fill="#3596d4" opacity="0.1"/>
    <path id="Path_114" data-name="Path 114" d="M349.128,798.086c-1.776-.648-3.676-.542-5.532-.746a17.121,17.121,0,0,1-10.177-4.937,18.648,18.648,0,0,1-4.067-6.216c.586.213,1.172.435,1.776.675-1.776-4.147.089-8.8,1.723-12.992q4.156-10.656,7.859-21.428c6.216-18.2,11.544-37.119,11.429-56.477,0-7-1.288-13.613-1.536-20.6-.186-5.186.613-10.363.577-15.558,0-.728,0-1.447-.053-2.176a13.791,13.791,0,0,0,4.68-11.242,27.059,27.059,0,0,0-.471-3.268,53,53,0,0,0-1.243-5.559c-.586-1.927-1.385-3.774-2.069-5.657-1.323-3.65-2.22-7.45-3.348-11.162a3.842,3.842,0,0,1,1.208.328,2.6,2.6,0,0,1-.568-1.163,28.78,28.78,0,0,1-1.066-7.255l.755-.338a18.889,18.889,0,0,0-.364-7.184c.426-3.81,1.092-7.646,1.5-11.437.151-1.421.089-3.206-1.217-3.552-.266-2.034-.373-4.094-.48-6.145q-.559-10.736-1.11-21.463c-.373-7.184-.746-14.359-.888-21.552-.1-4.564-.151-9.289-1.234-13.658a16.517,16.517,0,0,0-.63-6.216c-1.652-5.23-6.784-9.377-11.988-9.084a23.851,23.851,0,0,0-5.674-5.737c1.039-2.327,2.282-4.724,3.3-6.607,8.33-2.708,14.421-10.923,14.421-20.691A22.583,22.583,0,0,0,342.2,468.7a11.121,11.121,0,0,0,.391-1.2,9.848,9.848,0,0,0-.4-5.763,16.874,16.874,0,0,0-.888-2.06c-.231-.444-.48-.888-.737-1.314l-.453-.684a12.774,12.774,0,0,0-.888-1.208,29.394,29.394,0,0,0-2.025-2.433,20.038,20.038,0,0,0-2.913-2.593,12.841,12.841,0,0,0-4.8-2.211,14.611,14.611,0,0,0-3.046-.275c-.613,0-1.234,0-1.847.053-1.243.071-2.478.16-3.712.151a8.212,8.212,0,0,1-1.234-.062,44.962,44.962,0,0,1-6.429-1.341l-1.066-.222c-.364-.071-.719-.133-1.083-.178a20.331,20.331,0,0,0-2.939-.178h-.986a27.241,27.241,0,0,0-2.939.3l-.977.151a28.061,28.061,0,0,0-7.148,2.122c-.293.133-.6.284-.888.444l-.178.1c-.24.124-.48.258-.71.4l-.133.08-.755.48-.062.044c-7.051,4.742-11.216,13.729-12.272,22.644-1.181,10.008.888,20.1,2.957,29.944l1.865,8.88c.08.4.169.79.249,1.19a19.536,19.536,0,0,0-5.852,8.116c-1.776,4.44-1.82,9.244-1.678,14.057,0,.977.053,1.954.151,2.93-.222,1.847-.417,3.7-.542,5.568-.559,8.614.488,17.272.213,25.9-.213,6.651-1.217,13.32-.728,19.927.426,5.861,2,11.544,3.552,17.2l2.238,8.063a2.14,2.14,0,0,0,.559,1.11,1.688,1.688,0,0,0,1.252.258,75.585,75.585,0,0,0-3.641,10.194,31.524,31.524,0,0,0-1.314,6.553c-.293,4.067.648,8.108,1.59,12.059q2.131,8.88,4.245,17.831,1.492,6.261,2.975,12.512c1.954,8.223,3.916,16.5,4.28,24.962a54.213,54.213,0,0,1-.888,12.69,110.576,110.576,0,0,0-1.1,38.034,186.486,186.486,0,0,0,7.184,31.445c.719-.382,1.448-.737,2.193-1.066l-.311.577q-1.536,2.664-2.842,5.461a31.066,31.066,0,0,0-1.518,3.739,42.083,42.083,0,0,0-1.474,11.073,5.417,5.417,0,0,0,.186,2.14,4.446,4.446,0,0,0,3.2,2.4c3.836,1.092,7.823.7,11.811.187a1.436,1.436,0,0,0,.08.258,4.429,4.429,0,0,0,3.2,2.4c5.488,1.563,11.278.089,16.934-.444s11.216-.142,16.659-1.447a7.933,7.933,0,0,0,2.309-.888,7.557,7.557,0,0,0,2.913-4.04,5.177,5.177,0,0,0,.337-1.323C352.547,800.448,350.886,798.734,349.128,798.086Zm-18.781-82.239a22.379,22.379,0,0,1-1.776,6.021,114.909,114.909,0,0,0-9.111,28.567,132.448,132.448,0,0,0-2.016,19.758c-.089,4.884.1,10-1.936,14.386l.737-.115c-.231.426-.453.888-.666,1.225l-.107.2a19.252,19.252,0,0,1-2.424-6.8c0-.08-.4-.142-1.012-.178a183.756,183.756,0,0,1-2.593-42.527,19.69,19.69,0,0,1,.71-5.106c.453-1.43,1.217-2.735,1.776-4.12a30.273,30.273,0,0,0,1.776-7.228,102.691,102.691,0,0,0,1.119-19.11c-.213-6.03,1.181-12.024,2.371-18.027.568-2.851,1.092-5.71,1.376-8.569l.053-.577a86.021,86.021,0,0,1,10.9,28.31,40.494,40.494,0,0,1,.817,13.9ZM292.34,587.512l.284.249a19.535,19.535,0,0,1,2.362,2.478,3.277,3.277,0,0,1,.746,1.368c.266,1.3-.808,2.4-1.687,3.348a15.106,15.106,0,0,0-1.075,1.3q-.284-4.369-.6-8.738Z" transform="translate(-41.192 -63.218)" fill="url(#linear-gradient)"/>
    <path id="Path_115" data-name="Path 115" d="M280.045,542.53l-.977,7.539c-.329,2.557-.657,5.106-.835,7.672-.595,8.543.506,17.121.222,25.681-.231,6.589-1.279,13.169-.773,19.749.453,5.808,2.1,11.455,3.756,17.05l2.344,7.992a2.114,2.114,0,0,0,.586,1.1,2.069,2.069,0,0,0,1.5.24l10.407-.941c-.666-3.055-1.4-6.216-1.776-9.351-.284-2.451-.453-4.92-.63-7.388-.551-7.69-1.181-15.38-1.776-23.088l-1.11-13.5a101.811,101.811,0,0,0-2.433-17.441,34.713,34.713,0,0,0-8.507-15.318Z" transform="translate(-41.187 -73.897)" fill="#3596d4"/>
    <path id="Path_116" data-name="Path 116" d="M280.045,542.53l-.977,7.539c-.329,2.557-.657,5.106-.835,7.672-.595,8.543.506,17.121.222,25.681-.231,6.589-1.279,13.169-.773,19.749.453,5.808,2.1,11.455,3.756,17.05l2.344,7.992a2.114,2.114,0,0,0,.586,1.1,2.069,2.069,0,0,0,1.5.24l10.407-.941c-.666-3.055-1.4-6.216-1.776-9.351-.284-2.451-.453-4.92-.63-7.388-.551-7.69-1.181-15.38-1.776-23.088l-1.11-13.5a101.811,101.811,0,0,0-2.433-17.441,34.713,34.713,0,0,0-8.507-15.318Z" transform="translate(-41.187 -73.897)" opacity="0.1"/>
    <path id="Path_117" data-name="Path 117" d="M300.84,830.371a31.807,31.807,0,0,0-1.6,3.712c-1.19,3.508-1.368,7.273-1.545,10.976a5.328,5.328,0,0,0,.2,2.122c.515,1.332,1.989,2.007,3.366,2.371,5.763,1.554,11.837.1,17.76-.435s11.775-.142,17.494-1.43a8.938,8.938,0,0,0,2.424-.844,7.558,7.558,0,0,0,3.064-4,5.223,5.223,0,0,0,.346-1.314c.186-1.953-1.51-3.641-3.357-4.28s-3.863-.542-5.808-.737a18.293,18.293,0,0,1-16.2-15.283c-.071-.426-9.626-.169-10.656.382-1.172.648-1.883,2.256-2.549,3.348Q302.207,827.6,300.84,830.371Z" transform="translate(-43.44 -105.085)" fill="#a26565"/>
    <path id="Path_118" data-name="Path 118" d="M300.84,830.371a31.807,31.807,0,0,0-1.6,3.712c-1.19,3.508-1.368,7.273-1.545,10.976a5.328,5.328,0,0,0,.2,2.122c.515,1.332,1.989,2.007,3.366,2.371,5.763,1.554,11.837.1,17.76-.435s11.775-.142,17.494-1.43a8.938,8.938,0,0,0,2.424-.844,7.558,7.558,0,0,0,3.064-4,5.223,5.223,0,0,0,.346-1.314c.186-1.953-1.51-3.641-3.357-4.28s-3.863-.542-5.808-.737a18.293,18.293,0,0,1-16.2-15.283c-.071-.426-9.626-.169-10.656.382-1.172.648-1.883,2.256-2.549,3.348Q302.207,827.6,300.84,830.371Z" transform="translate(-43.44 -105.085)" opacity="0.1"/>
    <path id="Path_119" data-name="Path 119" d="M318.689,833.545a30.2,30.2,0,0,0-1.6,3.7,39.532,39.532,0,0,0-1.545,10.976,5.177,5.177,0,0,0,.2,2.122c.506,1.332,1.98,2.007,3.357,2.38,5.763,1.545,11.846.089,17.76-.444s11.784-.142,17.494-1.43a8.544,8.544,0,0,0,2.424-.888,7.522,7.522,0,0,0,3.064-4,5.221,5.221,0,0,0,.346-1.314c.186-1.945-1.51-3.641-3.357-4.28s-3.863-.533-5.808-.737a18.3,18.3,0,0,1-16.2-15.274c-.071-.426-9.626-.178-10.656.373-1.181.648-1.891,2.255-2.557,3.348C320.6,829.886,319.6,831.7,318.689,833.545Z" transform="translate(-45.439 -105.435)" fill="#a26565"/>
    <path id="Path_120" data-name="Path 120" d="M356.108,717.114c.124,19.19-5.452,37.945-12,55.945q-3.889,10.709-8.25,21.232c-1.723,4.156-3.668,8.774-1.82,12.876-5.328-2.025-10.745-3.215-16.348-2.282,2.131-4.351,1.927-9.413,2.025-14.208a124.587,124.587,0,0,1,2.1-19.581,109.226,109.226,0,0,1,9.582-28.319,21.578,21.578,0,0,0,1.856-5.967,38.117,38.117,0,0,0-.79-13.773,82.113,82.113,0,0,0-11.455-28.061l-.053.568a82.815,82.815,0,0,1-1.439,8.5c-1.252,5.941-2.717,11.891-2.5,17.867a96.64,96.64,0,0,1-1.172,18.941,28.8,28.8,0,0,1-1.909,7.157c-.613,1.376-1.412,2.664-1.891,4.094a18.649,18.649,0,0,0-.746,5.062,171.648,171.648,0,0,0,2.948,43.282,27.488,27.488,0,0,0-14.315,3.259,176.306,176.306,0,0,1-7.548-31.169,103.561,103.561,0,0,1,1.154-37.705,50.1,50.1,0,0,0,.932-12.565c-.382-8.392-2.442-16.6-4.493-24.749l-3.126-12.432q-2.22-8.88-4.44-17.68c-.986-3.916-1.98-7.921-1.669-11.953a29.66,29.66,0,0,1,1.385-6.5,72.541,72.541,0,0,1,9.83-20.1c17.112.959,34.428-.639,51.5-1.954a3.454,3.454,0,0,1,2.415.409,3.419,3.419,0,0,1,.977,2.2l6.42,36.408a91.465,91.465,0,0,1,1.82,15.363c0,5.15-.8,10.283-.6,15.425C354.758,703.625,356.073,710.178,356.108,717.114Z" transform="translate(-41.538 -83.337)" fill="#454b69"/>
    <path id="Path_121" data-name="Path 121" d="M323.445,700.618a82.827,82.827,0,0,1-1.439,8.5c-3.721-6.438-7.735-12.716-11.162-19.314-.888-1.7-1.723-3.419-2.566-5.142l-2.531-5.15c-.471-.968-.941-1.936-1.368-2.922a21.111,21.111,0,0,1-1.59-4.44c1.243-.231,4.316,3.126,5.239,4a71.612,71.612,0,0,1,5.328,5.9,64.648,64.648,0,0,1,5.559,7.282,35.413,35.413,0,0,1,4.529,11.286Z" transform="translate(-44.014 -88.411)" opacity="0.1"/>
    <path id="Path_122" data-name="Path 122" d="M337.349,504.317s-9.5,15.141-7.743,18.311-29.926-2.815-29.926-2.815,17.254-15.141,15.487-21.481S337.349,504.317,337.349,504.317Z" transform="translate(-43.666 -68.744)" fill="#efb7b9"/>
    <circle id="Ellipse_43" data-name="Ellipse 43" cx="21.481" cy="21.481" r="21.481" transform="translate(263.758 397.193)" fill="#efb7b9"/>
    <path id="Path_123" data-name="Path 123" d="M335.323,521.824a21.809,21.809,0,0,0-9.031-7.264,32.3,32.3,0,0,0-6.42-1.581l-8.569-1.51c-2.1-.373-4.342-.719-6.3.142a10.319,10.319,0,0,0-2.664,1.962c-2.975,2.762-5.861,5.79-9.6,7.388-1.021.435-2.087.755-3.108,1.19-4.183,1.776-7.308,5.559-9.075,9.768-1.865,4.387-1.918,9.155-1.776,13.924a24.474,24.474,0,0,0,.488,4.9,31.581,31.581,0,0,0,1.625,4.493,82.207,82.207,0,0,1,2.966,9.528q3.33,12.743,5.541,25.752a9.653,9.653,0,0,0,1.075,3.552,12.752,12.752,0,0,0,2.966,2.851,18.523,18.523,0,0,1,2.478,2.46,3.214,3.214,0,0,1,.808,1.314c.275,1.279-.888,2.38-1.776,3.312A16.037,16.037,0,0,0,290.941,611a2.815,2.815,0,0,0-.639,1.927,3.375,3.375,0,0,1,.2,1.527,3.446,3.446,0,0,1-.808,1.252,4.733,4.733,0,0,0-.888,3.8,60.286,60.286,0,0,0,21.028,4.92c1.776.089,3.552.089,5.328.3,1.261.16,2.5.417,3.765.568a40.645,40.645,0,0,0,5.506.142c9.564-.2,19.4-.435,28.185-4.227.826-4.5-.959-9.093-2.078-13.533-1.776-7.1-2.22-14.377-3.552-21.543-.888-4.893-2.22-9.715-2.975-14.643a35.8,35.8,0,0,1,.426-14.83c1.2-4.245,1.563-8.578,2.806-12.814s2.113-8.827.71-13.018C346.184,525.643,340.794,521.531,335.323,521.824Z" transform="translate(-41.32 -70.374)" fill="#3596d4"/>
    <path id="Path_124" data-name="Path 124" d="M346.158,470.9c1.048-3.81-1.012-7.779-3.463-10.878-2.664-3.33-6.056-6.332-10.221-7.166-3.383-.684-6.891.142-10.336-.133-3.046-.24-5.976-1.341-9-1.776a28.521,28.521,0,0,0-8.241.311,31.3,31.3,0,0,0-7.5,2.1c-9.146,4.058-14.5,14.057-15.744,23.976s.932,19.918,3.1,29.677l1.962,8.827c2.042,9.191,4.085,18.417,4.627,27.813s-.471,19.039-4.333,27.617a59.4,59.4,0,0,0,27.289-30.894c1.385-3.632,2.415-7.406,3.961-10.976,1.323-3.073,3.019-5.985,4.191-9.12a29.624,29.624,0,0,0,1.874-11.074c-.071-2.842-.542-5.665-.462-8.507a11.753,11.753,0,0,1,2.771-7.859c1.776-1.82,4.218-2.664,6.465-3.845a26.916,26.916,0,0,0,9.049-7.548c1.412-1.847,1.492-2.664,1.847-4.76S345.608,472.919,346.158,470.9Z" transform="translate(-41.605 -63.622)" fill="#a26565"/>
    <path id="Path_125" data-name="Path 125" d="M353.962,653.659c.222,2.211-.178,4.44.3,6.633.364,1.634,1.208,3.108,1.7,4.707a22.377,22.377,0,0,1,.755,5.657c.071,1.6-.053,3.552-1.474,4.3-.622.328-1.368.328-2.016.613s-1.2,1.057-.826,1.661,1.012.506,1.6.622,1.217.719.888,1.208a1.011,1.011,0,0,1-.515.329,6.286,6.286,0,0,0-1.669.8,1.705,1.705,0,0,0-.684,1.625,1,1,0,0,0,1.43.657,4.44,4.44,0,0,0-.417,1.776c2.273.977,4.822-.3,6.953-1.536a26.2,26.2,0,0,0,2.664-1.7,13.32,13.32,0,0,0,5.186-11.34,26.451,26.451,0,0,0-.506-3.241,48.76,48.76,0,0,0-1.305-5.515c-.613-1.909-1.447-3.73-2.167-5.6-1.527-3.987-2.513-8.161-3.9-12.2a1.847,1.847,0,0,0-.666-1.057,1.872,1.872,0,0,0-.986-.186,16.148,16.148,0,0,0-4.626.426c-.888.266-2.407.888-2.824,1.776s.249,1.634.648,2.371A19.874,19.874,0,0,1,353.962,653.659Z" transform="translate(-49.383 -85.018)" fill="#efb7b9"/>
    <path id="Path_126" data-name="Path 126" d="M350.2,533.64a6.507,6.507,0,0,1,1.137,1.581c3.055,5.55,3.09,12.184,3.232,18.515.16,7.1.551,14.208.941,21.357l1.163,21.312c.115,2.034.222,4.067.515,6.083,1.368.346,1.421,2.122,1.27,3.552-.986,8.685-3.428,17.627-.888,25.983a2.611,2.611,0,0,0,.595,1.154,6.935,6.935,0,0,0-3.969-.053c-1.27.266-2.5.737-3.774,1.03-1.616.364-3.445.524-4.547,1.776a88.12,88.12,0,0,1-2.975-11.473c-.6-3.552-.773-7.211-2.211-10.5-.577-1.323-1.359-2.549-2.069-3.818-3.721-6.642-5.55-14.146-7.335-21.552a31.462,31.462,0,0,1-.568-10.709,36.83,36.83,0,0,0,.444-4.928,37.858,37.858,0,0,0-.684-5.186,34.765,34.765,0,0,1,1.039-15.016c1.332-4.52,2.5-9.28,5.328-13.08S345.489,533.7,350.2,533.64Z" transform="translate(-47.072 -72.901)" opacity="0.1"/>
    <path id="Path_127" data-name="Path 127" d="M351.4,532.84a6.564,6.564,0,0,1,1.137,1.59c3.055,5.541,3.09,12.183,3.232,18.515.16,7.1.551,14.208.941,21.312l1.163,21.312c.115,2.034.222,4.067.515,6.083,1.368.346,1.421,2.122,1.261,3.552-.977,8.685-3.419,17.618-.888,25.983a2.61,2.61,0,0,0,.595,1.154,6.935,6.935,0,0,0-3.969-.053c-1.27.266-2.5.737-3.774,1.021-1.616.373-3.445.524-4.547,1.776a87.213,87.213,0,0,1-2.948-11.526c-.6-3.552-.773-7.2-2.211-10.487a42.873,42.873,0,0,0-2.069-3.818c-3.73-6.642-5.55-14.155-7.335-21.561a31.454,31.454,0,0,1-.568-10.709,23.088,23.088,0,0,0-.24-10.114,34.721,34.721,0,0,1,1.039-15.007c1.332-4.52,2.5-9.28,5.328-13.08S346.681,532.911,351.4,532.84Z" transform="translate(-47.207 -72.812)" fill="#3596d4"/>
    <g id="Group_243" data-name="Group 243" transform="translate(245.394 387.163)" opacity="0.1">
      <path id="Path_128" data-name="Path 128" d="M344.259,460.025c-2.664-3.33-6.056-6.332-10.221-7.166-3.383-.684-6.891.142-10.336-.133-3.046-.24-5.976-1.341-9-1.776a28.521,28.521,0,0,0-8.241.311,31.3,31.3,0,0,0-7.5,2.1,22.283,22.283,0,0,0-3.7,2.1,31.58,31.58,0,0,1,6.633-1.776,28.416,28.416,0,0,1,8.232-.311c3.037.391,5.959,1.483,9.013,1.723,3.437.275,6.944-.542,10.336.133,4.165.835,7.575,3.845,10.212,7.175,2.46,3.09,4.511,7.06,3.472,10.878-.551,2.007-1.829,3.765-2.176,5.834a8.24,8.24,0,0,1-1.856,4.76,26.978,26.978,0,0,1-6.518,6.065c.684-.32,1.385-.639,2.051-.986a26.915,26.915,0,0,0,9.049-7.548c1.412-1.847,1.492-2.664,1.847-4.76s1.625-3.818,2.176-5.834C348.77,467.093,346.71,463.124,344.259,460.025Z" transform="translate(-288.563 -450.785)"/>
      <path id="Path_129" data-name="Path 129" d="M327.343,498.069a8.883,8.883,0,0,1,1.2-1.039c-2.051.995-4.209,1.865-5.781,3.552-1.962,2.051-2.664,5.017-2.771,7.859s.4,5.665.462,8.5a29.668,29.668,0,0,1-1.874,11.082c-1.172,3.135-2.868,6.039-4.191,9.12-1.536,3.552-2.566,7.335-3.952,10.967a59.5,59.5,0,0,1-22.564,28.079c-.053.115-.1.24-.151.355a59.4,59.4,0,0,0,27.289-30.894c1.385-3.632,2.415-7.406,3.961-10.976,1.323-3.073,3.019-5.985,4.191-9.12a29.624,29.624,0,0,0,1.874-11.073c-.071-2.842-.542-5.665-.462-8.507S325.381,500.129,327.343,498.069Z" transform="translate(-287.72 -455.964)"/>
    </g>
  </g>
</svg>
